<?xml version="1.0" standalone="no"?>
<!DOCTYPE svg PUBLIC "-//W3C//DTD SVG 20010904//EN"
 "http://www.w3.org/TR/2001/REC-SVG-20010904/DTD/svg10.dtd">
<svg version="1.0" xmlns="http://www.w3.org/2000/svg"
 width="484.000000pt" height="502.000000pt" viewBox="0 0 484.000000 502.000000"
 preserveAspectRatio="xMidYMid meet">

<g transform="translate(0.000000,502.000000) scale(0.100000,-0.100000)"
fill="#000000" stroke="none">
<path d="M2240 4894 c0 -13 -3 -14 -15 -4 -23 19 -271 1 -386 -28 -184 -47
-498 -181 -657 -281 -42 -26 -95 -54 -116 -61 -26 -8 -71 -43 -130 -99 -50
-48 -110 -101 -133 -118 -52 -36 -148 -151 -233 -276 -116 -170 -200 -275
-248 -310 -36 -26 -53 -47 -67 -83 -27 -71 -133 -273 -165 -314 -56 -72 -62
-95 -62 -219 0 -64 5 -129 11 -144 6 -16 11 -39 11 -51 0 -13 9 -31 19 -40 25
-22 36 -67 20 -77 -24 -14 36 -127 112 -211 50 -54 214 -118 304 -118 71 0
128 21 119 44 -3 8 24 32 74 66 78 52 137 115 181 193 12 20 30 53 42 73 12
22 19 52 18 73 -3 47 11 111 23 111 5 0 8 12 6 28 -2 22 -7 27 -27 24 -20 -2
-22 1 -16 20 3 13 11 43 16 68 5 25 15 54 21 64 5 11 12 57 14 103 2 54 8 91
19 105 9 13 15 44 15 73 0 39 4 53 20 62 13 9 21 9 26 2 3 -6 12 -8 20 -5 9 4
14 -2 14 -15 0 -32 28 -19 62 28 23 31 29 48 24 67 -9 36 -34 32 -51 -6 -8
-18 -14 -27 -15 -20 0 6 -7 12 -15 12 -39 0 2 60 80 115 31 22 66 48 77 58 31
25 31 22 3 -23 -25 -40 -26 -60 -2 -60 7 0 43 32 81 71 57 57 117 99 142 99
33 0 -101 -130 -134 -130 -10 -1 -39 -23 -66 -49 -47 -46 -50 -53 -54 -110 -2
-34 -8 -61 -12 -61 -4 0 -11 -17 -15 -37 -4 -21 -11 -43 -17 -50 -16 -20 -5
-58 18 -61 17 -2 27 10 55 75 18 43 46 91 60 108 14 16 29 42 32 57 7 28 113
126 124 114 12 -11 -34 -92 -90 -158 -70 -83 -80 -103 -26 -51 24 23 55 43 68
45 14 2 26 9 29 16 2 7 -2 10 -12 6 -9 -3 -16 -1 -16 4 0 6 9 13 19 17 10 3
24 19 31 34 7 18 21 31 36 34 27 5 28 3 13 -24 -9 -18 -8 -20 12 -17 28 4 118
110 99 116 -15 5 45 60 124 113 57 37 96 50 96 30 0 -28 60 -21 148 16 89 38
159 56 297 73 153 20 209 35 200 58 -3 9 19 12 93 12 95 -1 210 -21 182 -33
-8 -3 13 -6 47 -6 52 -1 66 -5 89 -26 16 -15 40 -25 58 -26 40 -1 99 -22 104
-37 2 -7 -1 -12 -7 -12 -22 0 -10 -21 17 -31 98 -37 281 -124 279 -133 -1 -6
10 -10 26 -8 22 2 30 -2 34 -17 3 -12 13 -21 23 -21 26 0 70 -38 70 -61 0 -10
7 -19 15 -19 21 0 88 -35 104 -54 17 -20 51 -21 51 -2 0 8 -4 18 -10 21 -5 3
-10 10 -10 15 0 5 30 -7 67 -26 78 -41 97 -34 63 21 l-23 37 29 -15 c82 -43
130 -98 264 -297 83 -125 105 -164 115 -209 5 -24 2 -29 -17 -34 -29 -8 -48
10 -98 94 -22 38 -47 69 -55 69 -8 0 -22 11 -30 24 -30 45 -48 39 -20 -7 37
-60 106 -209 100 -215 -10 -10 -73 27 -79 45 -6 19 -46 49 -46 34 0 -4 9 -20
20 -34 28 -35 50 -91 50 -125 0 -15 5 -33 12 -40 9 -9 9 -15 1 -23 -9 -9 -19
-1 -40 30 -15 23 -54 77 -86 121 -107 150 -150 219 -144 234 8 20 -89 143
-187 237 -153 147 -374 280 -586 350 -81 27 -104 31 -160 26 -44 -4 -74 -2
-95 8 -21 9 -24 14 -12 14 10 1 15 6 11 12 -6 10 -67 5 -87 -8 -20 -12 34 -31
108 -38 58 -6 90 -14 118 -32 21 -13 58 -28 83 -32 25 -5 51 -14 57 -20 6 -6
30 -11 54 -11 32 0 45 -5 53 -20 7 -13 21 -20 38 -20 36 0 105 -35 113 -58 4
-9 20 -24 35 -32 42 -21 100 -66 172 -132 35 -32 81 -70 102 -84 21 -14 41
-36 44 -48 3 -12 23 -40 45 -62 22 -21 53 -65 70 -97 17 -32 56 -98 87 -145
125 -191 185 -343 219 -552 20 -125 20 -391 -1 -485 -8 -38 -21 -106 -29 -150
-19 -113 -30 -141 -65 -183 -34 -41 -130 -186 -130 -197 0 -4 9 3 19 16 11 13
22 21 26 18 10 -11 -105 -147 -216 -257 -75 -74 -114 -105 -141 -112 -20 -6
-40 -15 -43 -20 -9 -15 -93 -69 -154 -99 -130 -64 -374 -133 -440 -123 -17 2
-31 6 -31 9 0 17 47 45 115 68 196 67 330 126 365 162 19 19 31 33 25 31 -5
-2 -57 -27 -115 -55 -58 -28 -134 -60 -170 -73 -91 -31 -120 -44 -120 -53 0
-5 -6 -5 -12 0 -18 11 -48 4 -69 -16 -19 -18 -190 -57 -213 -48 -7 3 -88 1
-180 -4 -130 -7 -190 -5 -276 6 -61 8 -123 12 -138 9 -19 -4 -46 2 -75 15 -25
12 -57 21 -71 21 -13 0 -26 5 -28 11 -5 16 -84 13 -109 -5 -23 -16 -62 -13
-86 6 -17 13 -59 5 -55 -10 3 -15 -20 -11 -73 13 -109 47 -136 60 -190 85
-117 54 -133 60 -154 60 -22 0 -28 -14 -11 -25 6 -3 8 -16 5 -28 -6 -27 3 -43
35 -57 l25 -10 -25 3 c-14 3 -32 6 -40 8 -10 3 -16 -5 -18 -23 -3 -23 2 -30
32 -42 20 -8 36 -16 36 -18 0 -2 -21 -1 -46 1 -40 3 -45 1 -42 -15 2 -11 13
-23 26 -29 12 -5 22 -14 22 -20 0 -5 25 -30 55 -55 29 -24 52 -46 50 -48 -1
-2 -23 6 -48 17 -25 12 -50 21 -56 21 -5 0 -11 3 -13 8 -1 4 -22 17 -46 29
-40 21 -61 27 -141 37 -18 3 -45 15 -60 28 -45 41 -60 50 -71 43 -16 -10 7
-44 67 -99 29 -27 53 -57 53 -66 0 -9 5 -21 12 -28 9 -9 9 -12 0 -12 -7 0 -12
5 -12 10 0 6 -11 10 -25 10 -38 0 -31 -31 13 -60 20 -14 43 -30 50 -37 20 -19
179 -113 191 -113 6 0 11 -4 11 -8 0 -9 101 -62 118 -62 7 0 12 -4 12 -10 0
-5 8 -10 18 -10 9 -1 35 -9 57 -20 22 -11 48 -19 58 -20 9 0 17 -4 17 -10 0
-5 7 -10 16 -10 8 0 40 -11 70 -25 68 -31 64 -50 -9 -41 -42 6 -49 5 -44 -8 9
-23 6 -22 -80 22 -23 12 -53 22 -67 22 -14 0 -28 5 -31 10 -3 6 -15 10 -25 10
-10 0 -35 16 -56 35 -31 30 -49 37 -108 46 -88 14 -159 54 -341 194 -10 8 -23
15 -28 15 -5 0 15 -19 45 -42 29 -23 60 -51 68 -62 28 -40 58 -61 169 -121
105 -56 172 -107 159 -121 -9 -8 -162 73 -221 117 -27 20 -87 72 -135 116
-132 121 -146 133 -159 133 -60 1 140 -184 356 -330 35 -23 92 -67 127 -96 50
-43 71 -54 98 -54 23 0 45 -9 65 -26 23 -19 38 -24 56 -20 17 4 38 -3 71 -24
27 -16 52 -30 57 -30 6 0 29 -10 54 -22 32 -16 46 -19 55 -10 8 8 18 6 38 -8
54 -38 210 -78 266 -67 14 2 57 -4 96 -14 40 -11 84 -19 99 -19 51 0 133 -21
118 -31 -9 -5 15 -8 61 -8 55 0 70 3 55 10 -13 6 19 8 95 4 74 -3 110 -2 100
4 -8 6 -12 11 -10 13 15 11 215 56 380 86 52 9 97 20 98 24 2 5 16 7 30 7 24
-2 25 -2 4 -6 -12 -2 -20 -9 -17 -14 8 -12 55 -12 55 1 0 6 18 10 40 10 36 0
40 2 40 25 0 18 8 29 28 37 15 6 45 19 67 29 22 9 74 32 115 49 150 64 324
160 405 222 6 4 44 34 85 65 41 32 84 66 95 76 11 11 30 23 42 27 12 5 52 45
88 89 37 45 92 103 122 130 40 36 54 55 49 66 -4 10 6 34 24 61 16 25 30 49
30 54 0 5 11 17 25 28 32 26 49 70 34 88 -9 11 -7 14 9 14 30 0 37 31 12 52
l-21 17 20 13 c25 15 27 34 4 46 -14 9 -14 11 6 22 18 9 21 17 16 37 -4 16 -2
22 5 18 5 -3 10 1 10 9 0 26 -20 28 -29 3 -6 -14 -14 -28 -20 -31 -6 -4 -10
-27 -9 -52 0 -26 -4 -49 -9 -53 -6 -3 -14 -20 -17 -38 -4 -17 -14 -37 -22 -44
-18 -15 -18 2 1 27 17 22 19 44 5 44 -6 0 -13 -13 -16 -30 -4 -16 -13 -35 -22
-42 -14 -12 -14 -8 -8 32 13 81 29 122 56 139 16 10 24 23 22 35 -2 10 1 28 6
40 58 117 79 174 75 203 -6 41 -29 43 -60 6 -18 -20 -20 -29 -12 -40 9 -10 8
-13 -5 -13 -9 0 -16 -6 -16 -12 0 -7 -20 -53 -45 -102 -25 -49 -45 -95 -45
-103 0 -32 -41 -103 -59 -103 -10 0 -26 -11 -35 -24 -8 -14 -24 -27 -34 -30
-10 -4 -32 -35 -50 -69 -17 -35 -54 -88 -81 -118 -49 -52 -50 -53 -51 -26 0
21 15 43 61 90 58 58 98 122 99 158 0 8 15 30 34 48 32 31 56 80 70 144 4 16
18 40 31 53 14 14 28 37 31 52 4 15 10 32 15 37 4 6 11 34 15 63 3 28 10 52
15 52 4 0 13 17 19 38 7 20 16 41 21 46 5 6 9 17 9 25 0 9 7 29 15 45 8 16 18
54 22 85 3 31 10 58 14 62 5 3 12 65 15 137 4 73 11 135 16 138 12 8 10 284
-2 284 -6 0 -10 23 -9 53 l1 52 12 -35 c15 -48 24 -60 41 -54 7 3 18 -4 25
-15 6 -12 17 -21 25 -21 10 0 15 -10 15 -28 0 -15 4 -32 8 -37 4 -6 14 -28 21
-50 14 -41 26 -55 49 -55 8 0 12 20 12 67 0 82 16 75 33 -15 11 -58 13 -61 37
-55 14 3 27 8 30 10 3 3 5 44 4 92 -1 82 -3 92 -48 186 -53 112 -86 206 -86
245 0 15 -7 33 -15 40 -8 7 -17 28 -21 49 -8 43 -68 176 -112 246 -50 79 -37
41 32 -96 68 -136 84 -192 61 -216 -11 -10 -20 -11 -33 -4 -11 6 -22 8 -25 4
-11 -10 -35 16 -42 45 -4 15 -10 29 -13 32 -4 3 -16 22 -26 43 -21 40 -44 37
-30 -4 4 -13 7 -29 6 -36 -4 -19 28 -136 44 -160 19 -30 18 -31 -11 -29 -16 0
-25 7 -25 18 0 9 -9 33 -21 52 -11 19 -18 40 -15 45 4 5 -11 27 -33 49 -30 29
-38 44 -34 63 3 16 -1 30 -11 39 -20 16 -26 10 -36 -32 -7 -32 -9 -29 -68 92
-33 69 -93 182 -131 253 -39 70 -71 134 -71 142 0 20 -22 65 -32 65 -4 0 -8
14 -8 32 0 25 -11 41 -55 82 -102 96 -162 146 -173 146 -7 0 -12 6 -12 13 -1
19 -42 61 -101 102 -37 25 -56 45 -59 63 -4 22 -11 27 -35 28 -24 1 -175 81
-195 103 -9 10 -64 42 -92 54 -19 7 -26 17 -23 27 7 22 -125 74 -165 66 -41
-8 -47 19 -9 38 25 13 33 13 57 0 15 -7 35 -14 44 -14 9 0 18 -3 20 -7 2 -5
31 -21 65 -38 34 -16 60 -32 57 -36 -10 -17 10 -39 35 -39 15 0 34 -9 44 -20
9 -11 28 -20 42 -20 37 0 35 41 -4 58 -20 9 -30 21 -33 43 -3 16 -2 28 1 26
10 -5 145 -68 189 -88 29 -13 42 -25 38 -34 -6 -16 30 -45 129 -103 39 -23 84
-54 102 -69 17 -15 43 -37 57 -48 14 -11 25 -23 26 -28 0 -14 85 -92 120 -110
19 -11 56 -47 82 -80 26 -34 63 -80 83 -102 20 -22 38 -52 41 -67 9 -38 30
-54 49 -38 21 18 -10 73 -114 200 -173 211 -309 335 -497 451 -38 24 -73 49
-79 56 -13 16 -109 63 -128 63 -21 0 -67 21 -67 31 0 4 -16 13 -36 19 -30 10
-38 9 -55 -6 -16 -14 -23 -15 -42 -6 -12 6 -56 23 -97 37 l-75 26 58 -7 c53
-6 57 -5 57 14 0 12 -10 30 -22 42 l-22 20 28 0 c43 0 30 32 -18 45 -22 7 -42
17 -44 23 -6 20 48 14 161 -18 119 -33 137 -36 137 -17 0 15 -45 36 -95 44
-25 4 -33 9 -26 16 23 23 11 44 -31 60 -81 29 -148 47 -193 54 -25 3 -45 9
-45 13 0 4 -26 11 -57 15 -32 4 -63 11 -70 16 -6 6 -32 11 -57 12 -29 1 -46 7
-46 15 0 6 -1 12 -2 13 -2 0 -52 4 -112 8 -60 5 -111 13 -115 19 -3 5 -16 12
-27 16 -15 5 -20 13 -17 25 3 10 1 21 -4 24 -4 3 -58 7 -118 9 -108 3 -110 3
-113 -19 -2 -13 -10 -23 -18 -23 -10 0 -13 7 -8 25 6 24 4 25 -35 25 -31 0
-41 -4 -41 -16z m-13 -40 c-3 -3 -12 -4 -19 -1 -8 3 -5 6 6 6 11 1 17 -2 13
-5z m768 -366 c5 -5 -5 -6 -25 -2 -19 4 -39 11 -45 16 -5 5 5 6 25 2 19 -4 39
-11 45 -16z m72 -24 c-3 -3 -12 -4 -19 -1 -8 3 -5 6 6 6 11 1 17 -2 13 -5z
m40 -10 c-3 -3 -12 -4 -19 -1 -8 3 -5 6 6 6 11 1 17 -2 13 -5z m-992 -452
c-14 -12 -92 -42 -110 -42 -28 0 -15 16 28 32 45 18 97 24 82 10z m1205 -54
c0 -4 -16 2 -35 13 -19 12 -35 25 -35 30 0 5 16 -1 35 -13 19 -13 35 -26 35
-30z m118 -37 c20 -11 55 -36 77 -56 l40 -37 -48 32 c-27 18 -67 43 -90 56
-50 28 -32 32 21 5z m-2068 -5 c0 -11 -19 -15 -25 -6 -3 5 1 10 9 10 9 0 16
-2 16 -4z m2860 -873 c0 -7 -4 -13 -9 -13 -10 0 -21 25 -21 48 1 15 3 14 15
-2 8 -11 15 -26 15 -33z m413 -212 c25 -37 31 -57 33 -106 1 -33 0 -45 -3 -27
-2 17 -8 32 -12 32 -5 0 -11 14 -15 32 -7 37 -33 69 -49 62 -7 -2 -17 7 -24
21 -9 20 -8 25 3 25 8 0 14 10 14 23 0 35 14 43 18 11 2 -15 18 -48 35 -73z
m-579 15 c9 -19 16 -47 16 -63 -1 -23 -5 -18 -30 35 -17 35 -30 68 -30 74 0
18 27 -10 44 -46z m-2729 -1786 c3 -5 -1 -10 -9 -10 -8 0 -18 5 -21 10 -3 6 1
10 9 10 8 0 18 -4 21 -10z m83 -34 c12 -11 9 -13 -12 -9 -14 3 -26 9 -26 13 0
5 -6 10 -12 13 -7 2 -2 2 12 0 14 -2 31 -10 38 -17z m1332 -60 c0 -8 -71 -12
-76 -4 -3 4 13 8 35 8 23 0 41 -2 41 -4z m-1330 -41 c16 -19 3 -19 -30 0 -24
13 -24 14 -4 15 12 0 27 -7 34 -15z m-106 -501 c18 -7 22 -44 6 -44 -21 0 -71
31 -65 40 7 11 36 13 59 4z m1856 -234 c0 -5 -9 -10 -20 -10 -11 0 -20 5 -20
10 0 6 9 10 20 10 11 0 20 -4 20 -10z m-823 -146 c-3 -3 -12 -4 -19 -1 -8 3
-5 6 6 6 11 1 17 -2 13 -5z"/>
<path d="M3826 4295 c4 -8 -1 -17 -10 -21 -9 -3 -16 -12 -16 -20 0 -19 74 -64
105 -64 14 0 42 -11 62 -25 20 -13 38 -23 40 -21 2 2 -12 20 -30 40 -19 20
-42 54 -53 75 -14 29 -23 37 -40 33 -12 -2 -31 1 -43 7 -17 10 -20 9 -15 -4z"/>
<path d="M3616 4115 c-3 -9 -6 -18 -6 -20 0 -6 107 -81 133 -93 26 -11 27 -10
27 17 0 21 -11 39 -40 65 -22 20 -46 36 -53 36 -6 0 -22 3 -33 6 -14 4 -23 0
-28 -11z"/>
<path d="M2938 3943 c6 -2 18 -2 25 0 6 3 1 5 -13 5 -14 0 -19 -2 -12 -5z"/>
<path d="M3850 3911 c0 -15 179 -191 195 -191 25 0 18 43 -15 88 -30 41 -94
92 -117 92 -7 0 -13 5 -13 10 0 6 -11 10 -25 10 -14 0 -25 -4 -25 -9z"/>
<path d="M3810 3546 c0 -23 50 -76 71 -76 29 0 23 28 -12 61 -34 31 -59 38
-59 15z"/>
<path d="M3700 3466 c0 -9 5 -16 10 -16 6 0 10 4 10 9 0 6 -4 13 -10 16 -5 3
-10 -1 -10 -9z"/>
<path d="M1099 3443 c-7 -18 -7 -34 -1 -43 13 -21 42 -25 42 -6 0 9 5 16 10
16 6 0 10 14 10 30 0 25 -4 30 -25 30 -19 0 -28 -8 -36 -27z"/>
<path d="M3770 3385 c0 -8 4 -15 10 -15 5 0 7 7 4 15 -4 8 -8 15 -10 15 -2 0
-4 -7 -4 -15z"/>
<path d="M3792 3338 c3 -7 13 -15 22 -16 12 -3 17 1 14 10 -3 7 -13 15 -22 16
-12 3 -17 -1 -14 -10z"/>
<path d="M3846 3261 c-3 -4 3 -16 14 -26 11 -10 20 -24 20 -32 0 -7 7 -13 15
-13 20 0 19 8 -5 48 -20 32 -34 40 -44 23z"/>
<path d="M3780 2909 c7 -11 14 -19 16 -16 7 7 -7 37 -17 37 -6 0 -5 -9 1 -21z"/>
<path d="M3254 209 c-3 -6 -2 -15 3 -20 13 -13 43 -1 43 17 0 16 -36 19 -46 3z"/>
<path d="M3075 120 c-3 -5 3 -10 14 -10 12 0 21 5 21 10 0 6 -6 10 -14 10 -8
0 -18 -4 -21 -10z"/>
</g>
</svg>
